<svg width="85" height="43" viewBox="0 0 85 43" fill="none" xmlns="http://www.w3.org/2000/svg">
<g clip-path="url(#clip0_10_2)">
<path d="M1.92 5.2V22H3.96V5.2H1.92ZM3.048 7.12H6.48C7.568 7.12 8.448 7.384 9.12 7.912C9.808 8.424 10.152 9.2 10.152 10.24C10.152 11.264 9.808 12.04 9.12 12.568C8.448 13.096 7.568 13.36 6.48 13.36H3.048V15.28H6.48C7.568 15.28 8.536 15.08 9.384 14.68C10.248 14.264 10.928 13.68 11.424 12.928C11.936 12.16 12.192 11.264 12.192 10.24C12.192 9.2 11.936 8.304 11.424 7.552C10.928 6.8 10.248 6.224 9.384 5.824C8.536 5.408 7.568 5.2 6.48 5.2H3.048V7.12ZM16.3997 10.96H14.4797V22H16.3997V10.96ZM19.7357 13.072L20.7917 11.488C20.5037 11.184 20.1837 10.984 19.8317 10.888C19.4957 10.776 19.1277 10.72 18.7277 10.72C18.2157 10.72 17.7117 10.92 17.2157 11.32C16.7197 11.72 16.3117 12.264 15.9917 12.952C15.6877 13.624 15.5357 14.4 15.5357 15.28H16.3997C16.3997 14.752 16.4477 14.28 16.5437 13.864C16.6557 13.448 16.8477 13.12 17.1197 12.88C17.3917 12.64 17.7677 12.52 18.2477 12.52C18.5677 12.52 18.8317 12.568 19.0397 12.664C19.2477 12.744 19.4797 12.88 19.7357 13.072ZM21.3947 16.48C21.3947 17.584 21.6427 18.576 22.1387 19.456C22.6507 20.32 23.3387 21 24.2027 21.496C25.0667 21.992 26.0347 22.24 27.1067 22.24C28.1947 22.24 29.1627 21.992 30.0107 21.496C30.8747 21 31.5547 20.32 32.0507 19.456C32.5627 18.576 32.8187 17.584 32.8187 16.48C32.8187 15.36 32.5627 14.368 32.0507 13.504C31.5547 12.64 30.8747 11.96 30.0107 11.464C29.1627 10.968 28.1947 10.72 27.1067 10.72C26.0347 10.72 25.0667 10.968 24.2027 11.464C23.3387 11.96 22.6507 12.64 22.1387 13.504C21.6427 14.368 21.3947 15.36 21.3947 16.48ZM23.3387 16.48C23.3387 15.712 23.4987 15.032 23.8187 14.44C24.1547 13.832 24.6027 13.36 25.1627 13.024C25.7387 12.688 26.3867 12.52 27.1067 12.52C27.8267 12.52 28.4667 12.688 29.0267 13.024C29.6027 13.36 30.0507 13.832 30.3707 14.44C30.7067 15.032 30.8747 15.712 30.8747 16.48C30.8747 17.248 30.7067 17.928 30.3707 18.52C30.0507 19.112 29.6027 19.584 29.0267 19.936C28.4667 20.272 27.8267 20.44 27.1067 20.44C26.3867 20.44 25.7387 20.272 25.1627 19.936C24.6027 19.584 24.1547 19.112 23.8187 18.52C23.4987 17.928 23.3387 17.248 23.3387 16.48ZM34.6163 10.96V12.76H40.1363V10.96H34.6163ZM39.9443 5.584L41.0003 4C40.8883 3.84 40.7283 3.688 40.5203 3.544C40.3283 3.4 40.0963 3.28 39.8242 3.184C39.5523 3.088 39.2403 3.04 38.8883 3.04C38.2163 3.04 37.6403 3.184 37.1603 3.472C36.6963 3.744 36.3363 4.16 36.0803 4.72C35.8243 5.28 35.6963 6 35.6963 6.88V22H37.6163V7.12C37.6163 6.592 37.6643 6.168 37.7603 5.848C37.8563 5.528 37.9843 5.304 38.1443 5.176C38.3203 5.032 38.5283 4.96 38.7683 4.96C38.9603 4.96 39.1603 5 39.3683 5.08C39.5923 5.144 39.7843 5.312 39.9443 5.584ZM41.4834 10.96V12.76H47.0034V10.96H41.4834ZM46.8114 5.584L47.8674 4C47.7554 3.84 47.5954 3.688 47.3874 3.544C47.1954 3.4 46.9634 3.28 46.6914 3.184C46.4194 3.088 46.1074 3.04 45.7554 3.04C45.0834 3.04 44.5074 3.184 44.0274 3.472C43.5634 3.744 43.2034 4.16 42.9474 4.72C42.6914 5.28 42.5634 6 42.5634 6.88V22H44.4834V7.12C44.4834 6.592 44.5314 6.168 44.6274 5.848C44.7234 5.528 44.8514 5.304 45.0114 5.176C45.1874 5.032 45.3954 4.96 45.6354 4.96C45.8274 4.96 46.0274 5 46.2354 5.08C46.4594 5.144 46.6514 5.312 46.8114 5.584ZM49.1906 6.4C49.1906 6.752 49.3186 7.064 49.5746 7.336C49.8466 7.592 50.1586 7.72 50.5106 7.72C50.8786 7.72 51.1906 7.592 51.4466 7.336C51.7026 7.064 51.8306 6.752 51.8306 6.4C51.8306 6.032 51.7026 5.72 51.4466 5.464C51.1906 5.208 50.8786 5.08 50.5106 5.08C50.1586 5.08 49.8466 5.208 49.5746 5.464C49.3186 5.72 49.1906 6.032 49.1906 6.4ZM49.5506 10.96V22H51.4706V10.96H49.5506Z" fill="black"/>
<path d="M46.54 31.2H56.14V29.6H46.54V31.2ZM55 24V38H56.7V24H55ZM45.6 24V38H47.3V24H45.6ZM63.3569 38.2C64.3435 38.2 65.1969 38.0067 65.9169 37.62C66.6502 37.22 67.2569 36.6333 67.7369 35.86L66.4369 35.04C66.1035 35.6 65.6969 36.02 65.2169 36.3C64.7369 36.5667 64.1835 36.7 63.5569 36.7C62.9302 36.7 62.3969 36.5667 61.9569 36.3C61.5169 36.0333 61.1835 35.6467 60.9569 35.14C60.7302 34.6333 60.6169 34.02 60.6169 33.3C60.6302 32.5933 60.7502 32 60.9769 31.52C61.2169 31.0267 61.5502 30.6533 61.9769 30.4C62.4169 30.1333 62.9435 30 63.5569 30C64.0769 30 64.5302 30.1133 64.9169 30.34C65.3035 30.5667 65.6035 30.88 65.8169 31.28C66.0435 31.68 66.1569 32.1533 66.1569 32.7C66.1569 32.7933 66.1369 32.9133 66.0969 33.06C66.0569 33.1933 66.0169 33.2933 65.9769 33.36L66.6169 32.44H60.0169V33.8H67.8769C67.8769 33.7733 67.8769 33.7133 67.8769 33.62C67.8902 33.5133 67.8969 33.4133 67.8969 33.32C67.8969 32.3467 67.7235 31.5067 67.3769 30.8C67.0302 30.0933 66.5302 29.5533 65.8769 29.18C65.2369 28.7933 64.4635 28.6 63.5569 28.6C62.6502 28.6 61.8502 28.8 61.1569 29.2C60.4769 29.6 59.9435 30.16 59.5569 30.88C59.1835 31.6 58.9969 32.44 58.9969 33.4C58.9969 34.3467 59.1769 35.18 59.5369 35.9C59.9102 36.62 60.4235 37.1867 61.0769 37.6C61.7435 38 62.5035 38.2 63.3569 38.2ZM70.0898 22.4V38H71.6898V22.4H70.0898ZM76.1992 42.4V28.8H74.5992V42.4H76.1992ZM83.8992 33.4C83.8992 32.4 83.6926 31.5467 83.2792 30.84C82.8659 30.12 82.3126 29.5667 81.6192 29.18C80.9392 28.7933 80.1792 28.6 79.3392 28.6C78.5792 28.6 77.9059 28.7933 77.3192 29.18C76.7459 29.5667 76.2926 30.12 75.9592 30.84C75.6392 31.5467 75.4792 32.4 75.4792 33.4C75.4792 34.3867 75.6392 35.24 75.9592 35.96C76.2926 36.68 76.7459 37.2333 77.3192 37.62C77.9059 38.0067 78.5792 38.2 79.3392 38.2C80.1792 38.2 80.9392 38.0067 81.6192 37.62C82.3126 37.2333 82.8659 36.68 83.2792 35.96C83.6926 35.24 83.8992 34.3867 83.8992 33.4ZM82.2792 33.4C82.2792 34.1067 82.1326 34.7067 81.8392 35.2C81.5592 35.6933 81.1792 36.0667 80.6992 36.32C80.2326 36.5733 79.7126 36.7 79.1392 36.7C78.6726 36.7 78.2126 36.5733 77.7592 36.32C77.3059 36.0667 76.9326 35.6933 76.6392 35.2C76.3459 34.7067 76.1992 34.1067 76.1992 33.4C76.1992 32.6933 76.3459 32.0933 76.6392 31.6C76.9326 31.1067 77.3059 30.7333 77.7592 30.48C78.2126 30.2267 78.6726 30.1 79.1392 30.1C79.7126 30.1 80.2326 30.2267 80.6992 30.48C81.1792 30.7333 81.5592 31.1067 81.8392 31.6C82.1326 32.0933 82.2792 32.6933 82.2792 33.4Z" fill="black"/>
</g>
<defs>
<clipPath id="clip0_10_2">
<rect width="85" height="43" fill="white"/>
</clipPath>
</defs>
</svg>
